<?xml version="1.0" encoding="UTF-8"?>
<svg version="1.1" xmlns="http://www.w3.org/2000/svg" width="500" height="500">
<path d="M0 0 C6.76900645 6.98389554 7.96911618 14.63069627 7.97363281 23.98803711 C7.83168433 32.86734474 5.32727753 40.27913178 -1.13671875 46.59375 C-4.63512219 49.74362828 -8.09978294 52.55801457 -12.27734375 54.77734375 C-9.70625214 56.49140482 -7.46155159 57.56447941 -4.65234375 58.77734375 C2.48438689 62.30913725 8.41206455 68.2809529 11.72265625 75.58984375 C15.57784613 87.87826148 14.20238362 99.88475061 8.4140625 111.375 C7.09765625 113.58984375 7.09765625 113.58984375 4.72265625 116.77734375 C4.06265625 116.77734375 3.40265625 116.77734375 2.72265625 116.77734375 C2.39265625 117.76734375 2.06265625 118.75734375 1.72265625 119.77734375 C-9.35962213 128.32848448 -23.48245291 132.01020594 -37.24609375 132.19140625 C-38.62746521 132.22045547 -38.62746521 132.22045547 -40.03674316 132.25009155 C-42.95018534 132.30940874 -45.86366806 132.35607963 -48.77734375 132.40234375 C-50.76433923 132.44056766 -52.75131891 132.4796219 -54.73828125 132.51953125 C-59.58450572 132.6150704 -64.43080763 132.69927618 -69.27734375 132.77734375 C-69.60734375 129.14734375 -69.93734375 125.51734375 -70.27734375 121.77734375 C-71.55609375 122.41671875 -72.83484375 123.05609375 -74.15234375 123.71484375 C-79.15354667 125.96498751 -83.83829779 126.55024371 -89.27734375 126.77734375 C-89.27734375 126.11734375 -89.27734375 125.45734375 -89.27734375 124.77734375 C-88.22546875 124.44863281 -88.22546875 124.44863281 -87.15234375 124.11328125 C-76.46533789 120.54126571 -69.67458429 115.82615343 -64.27734375 105.77734375 C-60.51050854 96.70269528 -61.53276727 86.76097406 -64.88671875 77.7265625 C-68.1229932 70.86311528 -72.70918482 65.1408225 -78.21484375 59.96484375 C-89.00753703 49.53403565 -95.8443166 35.07531493 -96.375 20.00390625 C-96.36339844 19.14539063 -96.35179687 18.286875 -96.33984375 17.40234375 C-96.33082031 16.52835938 -96.32179687 15.654375 -96.3125 14.75390625 C-96.30089844 14.10164063 -96.28929687 13.449375 -96.27734375 12.77734375 C-95.28734375 12.77734375 -94.29734375 12.77734375 -93.27734375 12.77734375 C-93.06980469 13.59976563 -92.86226562 14.4221875 -92.6484375 15.26953125 C-88.68720487 29.62278421 -80.42815932 38.64670048 -69.33984375 48.21484375 C-57.26503424 58.6957784 -49.75718798 67.63954619 -48.05859375 83.8671875 C-47.7329528 90.71921579 -50.06892077 96.43955093 -53.10546875 102.4375 C-53.43023193 103.09032959 -53.75499512 103.74315918 -54.08959961 104.41577148 C-54.74436318 105.71618916 -55.41907024 107.00680077 -56.11547852 108.28540039 C-57.87519203 111.76838775 -58.53134407 114.02835987 -57.4765625 117.73828125 C-57.08082031 118.74117187 -56.68507812 119.7440625 -56.27734375 120.77734375 C-43.26904685 122.85867125 -29.43710136 123.60140247 -18.29296875 115.69140625 C-12.39528648 110.09089401 -10.19966065 102.19220918 -9.98535156 94.29394531 C-9.90213763 85.85763784 -10.30619755 77.62797746 -15.89892578 70.79663086 C-18.87613926 68.26896378 -21.91639924 67.30070072 -25.59765625 66.234375 C-26.29752655 66.02044601 -26.99739685 65.80651703 -27.71847534 65.58610535 C-29.94301959 64.90872543 -32.17229303 64.24884276 -34.40234375 63.58984375 C-36.63825748 62.91637865 -38.87308281 62.23941298 -41.1076355 61.56144714 C-42.49553491 61.14175301 -43.88444666 60.72538921 -45.27444458 60.31269836 C-50.06448933 58.88377096 -50.06448933 58.88377096 -52.27734375 57.77734375 C-51.78234375 56.29234375 -51.78234375 56.29234375 -51.27734375 54.77734375 C-53.91734375 53.78734375 -56.55734375 52.79734375 -59.27734375 51.77734375 C-57.29734375 49.30234375 -57.29734375 49.30234375 -55.27734375 46.77734375 C-56.59734375 46.77734375 -57.91734375 46.77734375 -59.27734375 46.77734375 C-57.79245272 40.65216827 -52.51611462 36.88358067 -47.4453125 33.5859375 C-40.46748359 30.98339591 -31.13929339 32.1632677 -24.27734375 34.77734375 C-24.75365125 39.06411121 -27.25820133 40.89543507 -30.27734375 43.77734375 C-31.99136055 45.74219227 -33.63097986 47.75466812 -35.27734375 49.77734375 C-29.97710038 49.32042622 -25.77654832 48.84498323 -21.27734375 45.77734375 C-14.68481057 36.62104767 -14.52872322 26.68050704 -16.27734375 15.77734375 C-17.83294167 10.36656838 -20.53884904 6.73959624 -25.3125 3.7421875 C-32.86023884 0.03584258 -41.06120053 0.5487648 -49.27734375 0.77734375 C-49.41833496 1.35178223 -49.55932617 1.9262207 -49.70458984 2.51806641 C-50.35130964 5.14678906 -51.00179519 7.77456613 -51.65234375 10.40234375 C-51.98492187 11.75779297 -51.98492187 11.75779297 -52.32421875 13.140625 C-53.23681885 16.81786658 -54.15807779 20.42673565 -55.37890625 24.015625 C-56.72458015 28.15210956 -57.14752536 32.35577396 -57.71484375 36.65625 C-58.24620147 39.60454733 -59.05886744 42.05100301 -60.27734375 44.77734375 C-61.26734375 44.44734375 -62.25734375 44.11734375 -63.27734375 43.77734375 C-63.77234375 39.81734375 -63.77234375 39.81734375 -64.27734375 35.77734375 C-64.60734375 39.73734375 -64.93734375 43.69734375 -65.27734375 47.77734375 C-71.40562133 46.24527436 -74.05928556 41.90073182 -77.6171875 36.890625 C-83.19941335 27.41474696 -79.95330895 14.83451034 -78.33984375 4.58984375 C-78.15744141 3.36458984 -77.97503906 2.13933594 -77.78710938 0.87695312 C-76.41934592 -8.08065408 -76.41934592 -8.08065408 -75.27734375 -9.22265625 C-72.80260847 -9.38306106 -70.35276622 -9.48226307 -67.875 -9.5390625 C-67.12327011 -9.5598436 -66.37154022 -9.58062469 -65.59703064 -9.60203552 C-63.99728241 -9.64539213 -62.39746975 -9.68642233 -60.79760742 -9.7253418 C-58.38119701 -9.78414984 -55.96503423 -9.84938729 -53.54882812 -9.91601562 C-13.61810944 -10.98956265 -13.61810944 -10.98956265 0 0 Z M-66.27734375 27.77734375 C-65.27734375 29.77734375 -65.27734375 29.77734375 -65.27734375 29.77734375 Z " fill="#68F736" transform="translate(302.27734375,118.22265625)"/>
<path d="M0 0 C0.99 0 1.98 0 3 0 C3.20753906 0.82242188 3.41507813 1.64484375 3.62890625 2.4921875 C7.59013888 16.84544046 15.84918443 25.86935673 26.9375 35.4375 C39.01230951 45.91843465 46.52015577 54.86220244 48.21875 71.08984375 C48.54439095 77.94187204 46.20842298 83.66220718 43.171875 89.66015625 C42.84711182 90.31298584 42.52234863 90.96581543 42.18774414 91.63842773 C41.53298057 92.93884541 40.85827351 94.22945702 40.16186523 95.50805664 C38.40215172 98.991044 37.74599968 101.25101612 38.80078125 104.9609375 C39.19652344 105.96382813 39.59226563 106.96671875 40 108 C53.0082969 110.0813275 66.84024239 110.82405872 77.984375 102.9140625 C83.88205727 97.31355026 86.0776831 89.41486543 86.29199219 81.51660156 C86.37520612 73.08029409 85.9711462 64.85063371 80.37841797 58.01928711 C77.40120449 55.49162003 74.36094451 54.52335697 70.6796875 53.45703125 C69.9798172 53.24310226 69.2799469 53.02917328 68.55886841 52.8087616 C66.33432416 52.13138168 64.10505072 51.47149901 61.875 50.8125 C59.63908627 50.1390349 57.40426094 49.46206923 55.16970825 48.78410339 C53.78180884 48.36440926 52.39289709 47.94804546 51.00289917 47.53535461 C46.21285442 46.10642721 46.21285442 46.10642721 44 45 C44.33 44.01 44.66 43.02 45 42 C42.36 41.01 39.72 40.02 37 39 C38.98 36.525 38.98 36.525 41 34 C39.68 34 38.36 34 37 34 C38.48489103 27.87482452 43.76122913 24.10623692 48.83203125 20.80859375 C55.80986016 18.20605216 65.13805036 19.38592395 72 22 C71.5236925 26.28676746 69.01914242 28.11809132 66 31 C64.2859832 32.96484852 62.64636389 34.97732437 61 37 C68.45052177 36.37410387 68.45052177 36.37410387 75 33 C76.96420571 29.78678749 78.53109093 26.46428556 80 23 C80.66 23 81.32 23 82 23 C80.55690235 29.13316502 78.88493506 33.18852915 73.3125 36.6875 C69.89192758 38.04282115 66.66846525 38.77517675 63.05078125 39.375 C60.64034714 40.10960849 59.74108004 41.23493814 58 43 C57.01 43 56.02 43 55 43 C55 43.99 55 44.98 55 46 C59.64376758 47.68252448 64.19794358 49.11005014 69.0625 50 C73.63913525 50.84513765 77.69341856 52.24546682 82 54 C82 54.99 82 55.98 82 57 C82.62519531 57.06445312 83.25039063 57.12890625 83.89453125 57.1953125 C86 58 86 58 87.01171875 60.1796875 C87.34623047 61.51386719 87.34623047 61.51386719 87.6875 62.875 C88.03361328 64.20144531 88.03361328 64.20144531 88.38671875 65.5546875 C88.58910156 66.36164063 88.79148437 67.16859375 89 68 C89.33 68.99 89.66 69.98 90 71 C90.01560763 72.62933154 89.96765104 74.25973097 89.87890625 75.88671875 C89.83056641 76.82451172 89.78222656 77.76230469 89.73242188 78.72851562 C89.64831055 80.19321289 89.64831055 80.19321289 89.5625 81.6875 C89.51029297 82.67556641 89.45808594 83.66363281 89.40429688 84.68164062 C89.27464694 87.12141676 89.13968258 89.56078105 89 92 C87.515 92.495 87.515 92.495 86 93 C85.896875 93.680625 85.79375 94.36125 85.6875 95.0625 C84.85274981 98.62915989 83.50527246 101.66222194 82 105 C81.01 105 80.02 105 79 105 C79 105.66 79 106.32 79 107 C67.17024293 113.24913457 52.76749971 113.27601926 40 110 C39.01 109.505 39.01 109.505 38 109 C38 108.34 38 107.68 38 107 C37.01 107 36.02 107 35 107 C34.01 110.3 33.02 113.6 32 117 C36.55356095 116.90577254 41.10663297 116.79953368 45.65966797 116.68261719 C47.20549035 116.64456022 48.75139428 116.60966868 50.29736328 116.578125 C52.53187018 116.53196346 54.76582671 116.4740602 57 116.4140625 C57.68054443 116.40251129 58.36108887 116.39096008 59.06225586 116.37905884 C64.00137312 116.23038194 68.26023215 115.27188739 73 114 C75.32748117 113.73414547 77.66194659 113.52112834 80 113.375 C81.7015625 113.26285156 81.7015625 113.26285156 83.4375 113.1484375 C84.283125 113.09945312 85.12875 113.05046875 86 113 C77.35122917 121.64877083 58.25292329 119.66789298 47.0625 119.75 C45.1073963 119.77822903 43.15231648 119.80816582 41.19726562 119.83984375 C36.46488777 119.91287451 31.73279065 119.96294771 27 120 C26.67 116.37 26.34 112.74 26 109 C24.72125 109.639375 23.4425 110.27875 22.125 110.9375 C17.12379708 113.18764376 12.43904596 113.77289996 7 114 C7 113.34 7 112.68 7 112 C7.70125 111.78085938 8.4025 111.56171875 9.125 111.3359375 C19.81200586 107.76392196 26.60275946 103.04880968 32 93 C35.76683521 83.92535153 34.74457648 73.98363031 31.390625 64.94921875 C28.15435055 58.08577153 23.56815893 52.36347875 18.0625 47.1875 C7.26980672 36.7566919 0.43302715 22.29797118 -0.09765625 7.2265625 C-0.08605469 6.36804688 -0.07445312 5.50953125 -0.0625 4.625 C-0.05347656 3.75101563 -0.04445312 2.87703125 -0.03515625 1.9765625 C-0.02355469 1.32429687 -0.01195312 0.67203125 0 0 Z " fill="#C60CE8" transform="translate(206,131)"/>
<path d="M0 0 C1.96325772 1.96325772 2.89327348 3.83254511 3.52734375 6.52734375 C2.53734375 6.52734375 1.54734375 6.52734375 0.52734375 6.52734375 C0.52734375 5.20734375 0.52734375 3.88734375 0.52734375 2.52734375 C-0.18292969 2.47835937 -0.89320313 2.429375 -1.625 2.37890625 C-2.54410156 2.30414063 -3.46320313 2.229375 -4.41015625 2.15234375 C-5.78494141 2.04792969 -5.78494141 2.04792969 -7.1875 1.94140625 C-8.31865234 1.73644531 -8.31865234 1.73644531 -9.47265625 1.52734375 C-9.96765625 0.53734375 -9.96765625 0.53734375 -10.47265625 -0.47265625 C-9.81265625 -0.47265625 -9.15265625 -0.47265625 -8.47265625 -0.47265625 C-8.47265625 -1.46265625 -8.47265625 -2.45265625 -8.47265625 -3.47265625 C-15.21866916 -4.73191199 -21.60469426 -5.72702521 -28.47265625 -5.47265625 C-29.13265625 -5.47265625 -29.79265625 -5.47265625 -30.47265625 -5.47265625 C-30.47265625 -4.15265625 -30.47265625 -2.83265625 -30.47265625 -1.47265625 C-29.35890625 -1.36953125 -28.24515625 -1.26640625 -27.09765625 -1.16015625 C-25.30328125 -0.81984375 -25.30328125 -0.81984375 -23.47265625 -0.47265625 C-22.81265625 0.51734375 -22.15265625 1.50734375 -21.47265625 2.52734375 C-21.80265625 3.51734375 -22.13265625 4.50734375 -22.47265625 5.52734375 C-22.98054688 5.25019531 -23.4884375 4.97304687 -24.01171875 4.6875 C-24.70007813 4.32527344 -25.3884375 3.96304688 -26.09765625 3.58984375 C-27.10699219 3.05037109 -27.10699219 3.05037109 -28.13671875 2.5 C-33.08352233 0.44021055 -38.05348355 0.41082158 -43.34765625 0.46484375 C-44.50007813 0.47386719 -45.6525 0.48289062 -46.83984375 0.4921875 C-47.70867187 0.50378906 -48.5775 0.51539062 -49.47265625 0.52734375 C-49.61364746 1.10178223 -49.75463867 1.6762207 -49.89990234 2.26806641 C-50.54662214 4.89678906 -51.19710769 7.52456613 -51.84765625 10.15234375 C-52.18023437 11.50779297 -52.18023437 11.50779297 -52.51953125 12.890625 C-53.43213135 16.56786658 -54.35339029 20.17673565 -55.57421875 23.765625 C-56.91989265 27.90210956 -57.34283786 32.10577396 -57.91015625 36.40625 C-58.44151397 39.35454733 -59.25417994 41.80100301 -60.47265625 44.52734375 C-61.95765625 44.03234375 -61.95765625 44.03234375 -63.47265625 43.52734375 C-63.80265625 40.88734375 -64.13265625 38.24734375 -64.47265625 35.52734375 C-64.80265625 39.48734375 -65.13265625 43.44734375 -65.47265625 47.52734375 C-71.60093383 45.99527436 -74.25459806 41.65073182 -77.8125 36.640625 C-83.39472585 27.16474696 -80.14862145 14.58451034 -78.53515625 4.33984375 C-78.35275391 3.11458984 -78.17035156 1.88933594 -77.98242188 0.62695312 C-76.61465842 -8.33065408 -76.61465842 -8.33065408 -75.47265625 -9.47265625 C-72.99792097 -9.63306106 -70.54807872 -9.73226307 -68.0703125 -9.7890625 C-67.31858261 -9.8098436 -66.56685272 -9.83062469 -65.79234314 -9.85203552 C-64.19259491 -9.89539213 -62.59278225 -9.93642233 -60.99291992 -9.9753418 C-58.57650951 -10.03414984 -56.16034673 -10.09938729 -53.74414062 -10.16601562 C-13.97954734 -11.23509632 -13.97954734 -11.23509632 0 0 Z M-66.47265625 27.52734375 C-65.47265625 29.52734375 -65.47265625 29.52734375 -65.47265625 29.52734375 Z " fill="#69F63D" transform="translate(302.47265625,118.47265625)"/>
<path d="M0 0 C1.32 0.33 2.64 0.66 4 1 C3.49396008 3.16874252 3.00016187 4.99967627 2 7 C2.53625 6.649375 3.0725 6.29875 3.625 5.9375 C7.08256837 4.57267038 8.52356017 4.58104497 12 6 C17.96423152 14.67524584 18.70092532 23.7356021 18 34 C17.11111271 38.18813154 15.91699528 42.16600943 14 46 C13.34 46 12.68 46 12 46 C11.91105469 46.75023437 11.82210937 47.50046875 11.73046875 48.2734375 C10.48318773 52.929064 6.76744196 55.22941769 3 58 C1.02204336 59.04292259 -0.97119181 60.05982059 -3 61 C-3.495 61.99 -3.495 61.99 -4 63 C-6.66015625 63.5625 -6.66015625 63.5625 -10.0625 64 C-13.72687411 64.47889137 -17.15588302 65.04281546 -20.72436523 66.02294922 C-24.82567905 67.06207087 -28.78262306 67.25928212 -33 67.1953125 C-34.08172485 67.19106766 -34.08172485 67.19106766 -35.18530273 67.18673706 C-37.45704747 67.17566696 -39.72837727 67.15058895 -42 67.125 C-43.55337967 67.1149531 -45.1067656 67.10583027 -46.66015625 67.09765625 C-50.44026062 67.07577111 -54.22006032 67.04133514 -58 67 C-57.25 60.375 -57.25 60.375 -55 57 C-54.01 57 -53.02 57 -52 57 C-52 57.66 -52 58.32 -52 59 C-38.2793193 61.63106555 -24.23739324 62.17136493 -11 57 C-11 56.34 -11 55.68 -11 55 C-10.01 55 -9.02 55 -8 55 C-7.71125 53.948125 -7.4225 52.89625 -7.125 51.8125 C-6.22453345 48.76091892 -5.35309767 45.87533255 -4 43 C-3.34 42.67 -2.68 42.34 -2 42 C-1.74230601 38.50149949 -1.52410864 35.00156618 -1.3125 31.5 C-1.20325195 30.02660156 -1.20325195 30.02660156 -1.09179688 28.5234375 C-0.72850875 22.11247059 -1.42795759 17.87139758 -4 12 C-4 11.01 -4 10.02 -4 9 C-3.01 9 -2.02 9 -1 9 C-1.495 6.525 -1.495 6.525 -2 4 C-1.34 3.67 -0.68 3.34 0 3 C0 2.01 0 1.02 0 0 Z " fill="#70FB1D" transform="translate(296,181)"/>
<path d="M0 0 C-0.4763075 4.28676746 -2.98085758 6.11809132 -6 9 C-7.7140168 10.96484852 -9.35363611 12.97732437 -11 15 C-3.54947823 14.37410387 -3.54947823 14.37410387 3 11 C4.96420571 7.78678749 6.53109093 4.46428556 8 1 C8.66 1 9.32 1 10 1 C8.55690235 7.13316502 6.88493506 11.18852915 1.3125 14.6875 C-2.10807242 16.04282115 -5.33153475 16.77517675 -8.94921875 17.375 C-11.35965286 18.10960849 -12.25891996 19.23493814 -14 21 C-14.99 21 -15.98 21 -17 21 C-17 21.99 -17 22.98 -17 24 C-12.35623242 25.68252448 -7.80205642 27.11005014 -2.9375 28 C1.63913525 28.84513765 5.69341856 30.24546682 10 32 C10 32.99 10 33.98 10 35 C10.93779297 35.09667969 10.93779297 35.09667969 11.89453125 35.1953125 C14 36 14 36 15.01171875 38.1796875 C15.34623047 39.51386719 15.34623047 39.51386719 15.6875 40.875 C16.03361328 42.20144531 16.03361328 42.20144531 16.38671875 43.5546875 C16.58910156 44.36164063 16.79148437 45.16859375 17 46 C17.33 46.99 17.66 47.98 18 49 C18.01560763 50.62933154 17.96765104 52.25973097 17.87890625 53.88671875 C17.83056641 54.82451172 17.78222656 55.76230469 17.73242188 56.72851562 C17.67634766 57.70498047 17.62027344 58.68144531 17.5625 59.6875 C17.51029297 60.67556641 17.45808594 61.66363281 17.40429688 62.68164062 C17.27464694 65.12141676 17.13968258 67.56078105 17 70 C16.01 70.33 15.02 70.66 14 71 C13.896875 71.680625 13.79375 72.36125 13.6875 73.0625 C12.85274981 76.62915989 11.50527246 79.66222194 10 83 C9.01 83 8.02 83 7 83 C7 83.66 7 84.32 7 85 C-4.82975707 91.24913457 -19.23250029 91.27601926 -32 88 C-32.66 87.67 -33.32 87.34 -34 87 C-34 86.34 -34 85.68 -34 85 C-34.99 85 -35.98 85 -37 85 C-38.485 89.95 -38.485 89.95 -40 95 C-35.44643905 94.90577254 -30.89336703 94.79953368 -26.34033203 94.68261719 C-24.79450965 94.64456022 -23.24860572 94.60966868 -21.70263672 94.578125 C-19.46812982 94.53196346 -17.23417329 94.4740602 -15 94.4140625 C-14.31945557 94.40251129 -13.63891113 94.39096008 -12.93774414 94.37905884 C-7.99862688 94.23038194 -3.73976785 93.27188739 1 92 C3.32748117 91.73414547 5.66194659 91.52112834 8 91.375 C9.7015625 91.26285156 9.7015625 91.26285156 11.4375 91.1484375 C12.283125 91.09945312 13.12875 91.05046875 14 91 C5.35122917 99.64877083 -13.74707671 97.66789298 -24.9375 97.75 C-26.8926037 97.77822903 -28.84768352 97.80816582 -30.80273438 97.83984375 C-35.53511223 97.91287451 -40.26720935 97.96294771 -45 98 C-45 96.68 -45 95.36 -45 94 C-44.01 93.505 -44.01 93.505 -43 93 C-42.26928667 91.38158416 -41.6122162 89.72935426 -41 88.0625 C-39.21412301 83.21412301 -39.21412301 83.21412301 -37 81 C-36.01 81 -35.02 81 -34 81 C-33.34 82.65 -32.68 84.3 -32 86 C-18.9917031 88.0813275 -5.15975761 88.82405872 5.984375 80.9140625 C11.88205727 75.31355026 14.0776831 67.41486543 14.29199219 59.51660156 C14.37520612 51.08029409 13.9711462 42.85063371 8.37841797 36.01928711 C5.40120449 33.49162003 2.36094451 32.52335697 -1.3203125 31.45703125 C-2.0201828 31.24310226 -2.7200531 31.02917328 -3.44113159 30.8087616 C-5.66567584 30.13138168 -7.89494928 29.47149901 -10.125 28.8125 C-12.36091373 28.1390349 -14.59573906 27.46206923 -16.83029175 26.78410339 C-18.21819116 26.36440926 -19.60710291 25.94804546 -20.99710083 25.53535461 C-25.78714558 24.10642721 -25.78714558 24.10642721 -28 23 C-27.67 22.01 -27.34 21.02 -27 20 C-29.64 19.01 -32.28 18.02 -35 17 C-33.68 15.35 -32.36 13.7 -31 12 C-32.32 12 -33.64 12 -35 12 C-33.51510897 5.87482452 -28.23877087 2.10623692 -23.16796875 -1.19140625 C-16.19013984 -3.79394784 -6.86194964 -2.61407605 0 0 Z " fill="#8CE54E" transform="translate(278,153)"/>
<path d="M0 0 C9.53023367 2.77072805 13.92521756 9.89291722 19 18 C19.66 18.99 20.32 19.98 21 21 C22.29958564 24.89875693 21.46753124 27.95719604 20.6875 31.875 C20.55666016 32.58269531 20.42582031 33.29039062 20.29101562 34.01953125 C19.54799913 37.87460232 18.6092086 41.41617298 17 45 C15.515 44.505 15.515 44.505 14 44 C13.67 41.36 13.34 38.72 13 36 C12.67 39.96 12.34 43.92 12 48 C5.87172242 46.46793061 3.21805819 42.12338807 -0.33984375 37.11328125 C-6.71059973 26.2988663 -2.03783956 11.59627747 0 0 Z M11 28 C12 30 12 30 12 30 Z " fill="#F903F8" transform="translate(225,118)"/>
<path d="M0 0 C0.125 2.875 0.125 2.875 0 6 C-0.66 6.66 -1.32 7.32 -2 8 C-2 8.66 -2 9.32 -2 10 C-1.24074219 10.04898438 -0.48148437 10.09796875 0.30078125 10.1484375 C1.29464844 10.22320312 2.28851563 10.29796875 3.3125 10.375 C4.29863281 10.44460937 5.28476562 10.51421875 6.30078125 10.5859375 C9 11 9 11 12 13 C12.99 13 13.98 13 15 13 C23.35005754 18.79531714 28.05127655 26.08814762 30 36 C31.35488509 47.93278313 28.16432599 59.38472038 21 69 C20.34 69 19.68 69 19 69 C18.505 70.485 18.505 70.485 18 72 C15.78515625 73.60546875 15.78515625 73.60546875 13.0625 75.1875 C12.16660156 75.71730469 11.27070313 76.24710937 10.34765625 76.79296875 C8 78 8 78 6 78 C7.15541291 74.53376127 7.71318507 74.30353111 10.75 72.5625 C18.07025392 68.27281848 18.07025392 68.27281848 22 61 C22.66 61 23.32 61 24 61 C27.55892771 49.2428281 28.74637808 38.53022578 24 27 C23.33333333 25 22.66666667 23 22 21 C18.4780279 20.91995518 15.38018531 20.95994298 12 22 C12.33 20.02 12.66 18.04 13 16 C12.34 16 11.68 16 11 16 C10.505 17.485 10.505 17.485 10 19 C9.34 19 8.68 19 8 19 C8.495 21.475 8.495 21.475 9 24 C4.25 23.125 4.25 23.125 2 22 C1.67 21.01 1.34 20.02 1 19 C-4.09927045 16.3864787 -10.04262418 15.56831304 -15.625 14.5390625 C-18.99390515 13.77440969 -21.88914527 12.48780009 -25 11 C-25 10.01 -25 9.02 -25 8 C-19.13778621 5.12871161 -14.46083617 3.84638794 -8 6 C-7.34 5.67 -6.68 5.34 -6 5 C-5.835 4.34 -5.67 3.68 -5.5 3 C-5.335 2.34 -5.17 1.68 -5 1 C-3 0 -3 0 0 0 Z " fill="#6BFA29" transform="translate(286,166)"/>
<path d="M0 0 C-0.4763075 4.28676746 -2.98085758 6.11809132 -6 9 C-6.88689855 10.07361403 -7.76210531 11.15700006 -8.625 12.25 C-11 15 -11 15 -14 16 C-14.33 16.66 -14.66 17.32 -15 18 C-18.17545903 19.05848634 -20.54008796 19.16670878 -23.875 19.1875 C-24.90367187 19.20167969 -25.93234375 19.21585938 -26.9921875 19.23046875 C-30.05463488 18.99581369 -32.23248861 18.29184572 -35 17 C-33.68 15.35 -32.36 13.7 -31 12 C-32.32 12 -33.64 12 -35 12 C-33.51510897 5.87482452 -28.23877087 2.10623692 -23.16796875 -1.19140625 C-16.19013984 -3.79394784 -6.86194964 -2.61407605 0 0 Z " fill="#C10DE2" transform="translate(278,153)"/>
<path d="M0 0 C6.15640664 5.57171998 6.74218111 14.00380723 7.25 21.875 C7.07566693 30.19544208 2.8956663 37.61137726 -0.66235352 44.94750977 C-2.40972648 48.31904174 -2.40972648 48.31904174 -3 52 C-3.763125 52.350625 -4.52625 52.70125 -5.3125 53.0625 C-8.83766978 55.60390147 -9.20373709 57.93447743 -10.2265625 62.0390625 C-10.60941406 63.00972656 -10.60941406 63.00972656 -11 64 C-12.485 64.495 -12.485 64.495 -14 65 C-14.33 62.69 -14.66 60.38 -15 58 C-15.53367188 58.27714844 -16.06734375 58.55429688 -16.6171875 58.83984375 C-22.43425414 61.66786404 -27.5548024 62.73088945 -34 63 C-34 62.34 -34 61.68 -34 61 C-33.29875 60.78085938 -32.5975 60.56171875 -31.875 60.3359375 C-21.18799414 56.76392196 -14.39724054 52.04880968 -9 42 C-4.79758207 31.87599318 -6.97999151 21.13859992 -10 11 C-9.34 11 -8.68 11 -8 11 C-8 11.66 -8 12.32 -8 13 C-7.34 13 -6.68 13 -6 13 C-5.80664062 13.97582031 -5.61328125 14.95164063 -5.4140625 15.95703125 C-5.02347656 17.86548828 -5.02347656 17.86548828 -4.625 19.8125 C-4.36976563 21.07707031 -4.11453125 22.34164062 -3.8515625 23.64453125 C-3.17222819 27.10239018 -3.17222819 27.10239018 -1 30 C-1 31.32 -1 32.64 -1 34 C-0.34 34 0.32 34 1 34 C2.83170796 25.43637389 3.85239267 17.39871175 1 9 C0.505 8.505 0.505 8.505 0 8 C-0.14115161 5.32941149 -0.04247107 2.67567762 0 0 Z " fill="#A817D1" transform="translate(247,182)"/>
<path d="M0 0 C0.99 0 1.98 0 3 0 C3.20753906 0.82242188 3.41507813 1.64484375 3.62890625 2.4921875 C6.73383768 13.74269217 11.70838394 21.3794691 20.3984375 29.11328125 C22.31966936 31.3765861 22.64916563 33.08807476 23 36 C24.485 36.495 24.485 36.495 26 37 C28.15637846 38.6646627 28.90500435 39.58013375 29.51171875 42.26171875 C29.56972656 43.06222656 29.62773437 43.86273438 29.6875 44.6875 C29.78611328 45.89986328 29.78611328 45.89986328 29.88671875 47.13671875 C29.92410156 47.75160156 29.96148437 48.36648437 30 49 C25.103742 49.35826278 21.05962838 48.82297688 17 46 C6.13044788 34.98524394 -0.22795776 19.51773856 -0.25 4 C-0.18854182 2.66547944 -0.11517928 1.33096054 0 0 Z " fill="#F308F4" transform="translate(206,131)"/>
<path d="M0 0 C0.33 0 0.66 0 1 0 C0.9278125 1.26714844 0.855625 2.53429687 0.78125 3.83984375 C0.6873709 5.53905537 0.59362821 7.23827453 0.5 8.9375 C0.45230469 9.76830078 0.40460938 10.59910156 0.35546875 11.45507812 C0.12890531 15.61413563 0.01579128 19.68832947 0.171875 23.8515625 C0.18756604 26.82076425 0.06883576 27.87334994 -1.390625 30.55859375 C-2.00421875 31.17863281 -2.6178125 31.79867187 -3.25 32.4375 C-3.85328125 33.07558594 -4.4565625 33.71367187 -5.078125 34.37109375 C-6.97140566 35.97576455 -8.7365671 37.00348861 -11 38 C-9.86695008 41.39914975 -8.87481525 42.05254451 -6 44 C-6.20625 45.03125 -6.4125 46.0625 -6.625 47.125 C-7.01679209 51.17351822 -6.51831567 53.2885617 -5 57 C-3.93453047 60.1964086 -3.92572162 62.65747276 -4 66 C-0.65091073 67.67454464 3.29553327 67.44020318 6.890625 66.51171875 C12.52637888 65.14452661 18.23085292 65.13150962 23.4375 67.6875 C25.98617848 69.98752692 28.09451519 72.14177278 30 75 C30 75.99 30 76.98 30 78 C29.34 78 28.68 78 28 78 C27.38125 77.21625 26.7625 76.4325 26.125 75.625 C24.0132136 73.01632268 23.03174908 72.19399192 20 71 C17.78270283 70.7215372 17.78270283 70.7215372 15.4375 70.8125 C14.56480469 70.82667969 13.69210938 70.84085937 12.79296875 70.85546875 C9.92593416 71.00383278 7.10221438 71.30203439 4.25 71.625 C0.00185935 72.04560799 -3.10252571 71.99870476 -7 70 C-8.94883138 67.07675293 -9.48079727 65.48916982 -10.125 62.125 C-10.29257813 61.28195313 -10.46015625 60.43890625 -10.6328125 59.5703125 C-10.99899372 57.00704396 -11.03061718 54.58496455 -11 52 C-11.40929986 49.94603274 -11.40929986 49.94603274 -12 48 C-12.2165625 46.948125 -12.2165625 46.948125 -12.4375 45.875 C-12.90475673 43.77917672 -12.90475673 43.77917672 -15 42 C-15.125 39.3125 -15.125 39.3125 -14 36 C-12.05165258 33.98893753 -10.00587422 32.25465742 -7.8125 30.515625 C-5.89020934 29.11314099 -5.89020934 29.11314099 -5 27 C-4.97975679 24.9583274 -5.00804052 22.91604654 -5.0625 20.875 C-5.11507846 12.92688952 -3.87937252 7.05340459 0 0 Z " fill="#BA31B1" transform="translate(200,147)"/>
<path d="M0 0 C9.53023367 2.77072805 13.92521756 9.89291722 19 18 C19.66 18.99 20.32 19.98 21 21 C22.29958564 24.89875693 21.46753124 27.95719604 20.6875 31.875 C20.55666016 32.58269531 20.42582031 33.29039062 20.29101562 34.01953125 C19.54799913 37.87460232 18.6092086 41.41617298 17 45 C15.515 44.505 15.515 44.505 14 44 C13.67 41.36 13.34 38.72 13 36 C12.67 39.96 12.34 43.92 12 48 C5.87172242 46.46793061 3.21805819 42.12338807 -0.33984375 37.11328125 C-6.71059973 26.2988663 -2.03783956 11.59627747 0 0 Z M2 4 C0.55905394 12.18123918 -0.22946907 19.94846361 0.25 28.25 C0.28859131 28.97630615 0.32718262 29.7026123 0.36694336 30.45092773 C0.62787264 34.07437422 0.94384855 35.91577283 3 39 C4.98 39.66 6.96 40.32 9 41 C9.33 36.38 9.66 31.76 10 27 C10.66 27 11.32 27 12 27 C13 28.33333333 14 29.66666667 15 31 C15.66 31 16.32 31 17 31 C16.67 27.37 16.34 23.74 16 20 C15.34 20 14.68 20 14 20 C13.9175 18.96875 13.835 17.9375 13.75 16.875 C12.76238679 11.77233173 10.23519483 7.17639612 6 4 C4.68 4 3.36 4 2 4 Z M11 28 C12 30 12 30 12 30 Z " fill="#DA1DD8" transform="translate(225,118)"/>
<path d="M0 0 C0.38414062 0.50015625 0.76828125 1.0003125 1.1640625 1.515625 C2.22173828 1.03996094 2.22173828 1.03996094 3.30078125 0.5546875 C6.28912129 -0.52975786 8.81475908 -0.8808109 11.9765625 -1.109375 C12.95238281 -1.18414062 13.92820312 -1.25890625 14.93359375 -1.3359375 C15.66964844 -1.38492188 16.40570313 -1.43390625 17.1640625 -1.484375 C17.1640625 -0.164375 17.1640625 1.155625 17.1640625 2.515625 C16.41640625 2.56460938 15.66875 2.61359375 14.8984375 2.6640625 C13.91359375 2.73882812 12.92875 2.81359375 11.9140625 2.890625 C10.93953125 2.96023437 9.965 3.02984375 8.9609375 3.1015625 C6.11874706 3.52233371 4.45482634 3.78750491 2.1640625 5.515625 C0.81022687 8.36648826 0.81022687 8.36648826 -0.0859375 11.640625 C-0.58867187 13.28417969 -0.58867187 13.28417969 -1.1015625 14.9609375 C-1.34390625 15.80398437 -1.58625 16.64703125 -1.8359375 17.515625 C-2.44824219 17.36222656 -3.06054688 17.20882812 -3.69140625 17.05078125 C-5.17594931 16.68032151 -6.66171985 16.31475902 -8.1484375 15.953125 C-12.33111733 13.71587765 -15.24473935 10.46830015 -17.8359375 6.515625 C-18.2734375 3.015625 -18.2734375 3.015625 -17.8359375 0.515625 C-14.3049559 -0.22909112 -10.79612924 -0.81955943 -7.2109375 -1.234375 C-6.26992187 -1.35296875 -5.32890625 -1.4715625 -4.359375 -1.59375 C-1.8359375 -1.484375 -1.8359375 -1.484375 0 0 Z " fill="#64F936" transform="translate(248.8359375,112.484375)"/>
<path d="M0 0 C0.99 0.33 1.98 0.66 3 1 C3 3.64 3 6.28 3 9 C7.15065056 10.32820818 11.64701988 10.61021269 15.8828125 9.51171875 C21.52335806 8.14841346 27.22633291 8.1292907 32.4375 10.6875 C34.98617848 12.98752692 37.09451519 15.14177278 39 18 C39 18.99 39 19.98 39 21 C38.34 21 37.68 21 37 21 C36.38125 20.21625 35.7625 19.4325 35.125 18.625 C33.0132136 16.01632268 32.03174908 15.19399192 29 14 C26.78270283 13.7215372 26.78270283 13.7215372 24.4375 13.8125 C23.56480469 13.82667969 22.69210938 13.84085938 21.79296875 13.85546875 C18.92593416 14.00383278 16.10221438 14.30203439 13.25 14.625 C9.00185935 15.04560799 5.89747429 14.99870476 2 13 C-0.20914 9.68629 -0.22481553 8.6553979 -0.125 4.8125 C-0.10695312 3.91144531 -0.08890625 3.01039063 -0.0703125 2.08203125 C-0.04710937 1.39496094 -0.02390625 0.70789063 0 0 Z " fill="#CA30C2" transform="translate(191,204)"/>
<path d="M0 0 C0.99 0 1.98 0 3 0 C3.20753906 0.82242188 3.41507813 1.64484375 3.62890625 2.4921875 C6.97441553 14.61440942 12.87799995 22.51772463 22 31 C21.01 31.33 20.02 31.66 19 32 C18.54625 31.505 18.0925 31.01 17.625 30.5 C16.12364481 28.77390663 16.12364481 28.77390663 14 29 C12.37053772 26.69404616 10.8564103 24.39803293 9.375 22 C8.95476562 21.33226562 8.53453125 20.66453125 8.1015625 19.9765625 C7.06135408 18.32168546 6.02985949 16.66133712 5 15 C4.10995993 18.18663528 4.02957169 20.04554716 4.9375 23.25 C5.4634375 25.10625 5.4634375 25.10625 6 27 C6.66 27 7.32 27 8 27 C8.86627399 28.59766103 9.71766465 30.20339944 10.5625 31.8125 C11.03816406 32.70582031 11.51382813 33.59914062 12.00390625 34.51953125 C13 37 13 37 12 40 C4.44134838 29.40514843 -0.24057299 17.80240117 -0.0625 4.625 C-0.05347656 3.75101563 -0.04445312 2.87703125 -0.03515625 1.9765625 C-0.02355469 1.32429687 -0.01195312 0.67203125 0 0 Z " fill="#CF28C6" transform="translate(206,131)"/>
<path d="M0 0 C0.86625 0.33 1.7325 0.66 2.625 1 C2.1486925 5.28676746 -0.35585758 7.11809132 -3.375 10 C-4.26189855 11.07361403 -5.13710531 12.15700006 -6 13.25 C-8.375 16 -8.375 16 -11.375 17 C-11.705 17.66 -12.035 18.32 -12.375 19 C-15.55045903 20.05848634 -17.91508796 20.16670878 -21.25 20.1875 C-22.27867187 20.20167969 -23.30734375 20.21585938 -24.3671875 20.23046875 C-27.42963488 19.99581369 -29.60748861 19.29184572 -32.375 18 C-31.385 17.01 -30.395 16.02 -29.375 15 C-29.375 15.99 -29.375 16.98 -29.375 18 C-22.39830843 18.39325819 -16.85843811 17.63096039 -10.375 15 C-10.375 14.01 -10.375 13.02 -10.375 12 C-9.385 12 -8.395 12 -7.375 12 C-7.375 10.02 -7.375 8.04 -7.375 6 C-6.385 6 -5.395 6 -4.375 6 C-5.035 4.35 -5.695 2.7 -6.375 1 C-8.27111434 1.14213297 -10.16688394 1.28886907 -12.0625 1.4375 C-13.11824219 1.51871094 -14.17398437 1.59992188 -15.26171875 1.68359375 C-18.02586297 1.96451681 -20.66445741 2.40156852 -23.375 3 C-17.60356833 -3.03376947 -7.69939138 -2.23837976 0 0 Z " fill="#AB20C8" transform="translate(275.375,152)"/>
<path d="M0 0 C6.15278219 2.98316712 11.09349133 8.45637518 13.875 14.6875 C17.75018314 26.09776148 16.47296376 36.93984201 12 48 C10.51488791 50.94805833 8.98438857 53.33674166 7 56 C6.34 56 5.68 56 5 56 C4.67 56.99 4.34 57.98 4 59 C1.78515625 60.60546875 1.78515625 60.60546875 -0.9375 62.1875 C-1.83339844 62.71730469 -2.72929687 63.24710938 -3.65234375 63.79296875 C-6 65 -6 65 -8 65 C-6.84458709 61.53376127 -6.28681493 61.30353111 -3.25 59.5625 C4.07025392 55.27281848 4.07025392 55.27281848 8 48 C8.66 48 9.32 48 10 48 C13.47040528 36.53526826 15.1171119 25.20054536 10 14 C9.70996094 13.36320313 9.41992188 12.72640625 9.12109375 12.0703125 C6.79452808 7.53399618 3.8936624 5.09723145 0 2 C0 1.34 0 0.68 0 0 Z " fill="#8BDE55" transform="translate(300,179)"/>
<path d="M0 0 C1.47583955 0.0001591 2.95168467 0.00585225 4.42749023 0.01586914 C5.20293686 0.01728409 5.97838348 0.01869904 6.77732849 0.02015686 C9.26361893 0.02577194 11.74982059 0.03832693 14.23608398 0.05102539 C15.91772331 0.05603845 17.59936405 0.06060169 19.28100586 0.06469727 C23.41189965 0.07574626 27.54272674 0.09302094 31.67358398 0.11352539 C27.91669949 2.61811505 24.4880175 2.80554416 20.11108398 3.23852539 C19.30493652 3.32344238 18.49878906 3.40835938 17.66821289 3.49584961 C11.97738592 4.064589 6.39477683 4.29808 0.67358398 4.11352539 C1.86552867 9.6398144 3.27271368 12.29171697 7.67358398 16.11352539 C7.34358398 16.77352539 7.01358398 17.43352539 6.67358398 18.11352539 C6.21467773 17.63141602 5.75577148 17.14930664 5.28295898 16.65258789 C4.66936523 16.02094727 4.05577148 15.38930664 3.42358398 14.73852539 C2.82030273 14.11204102 2.21702148 13.48555664 1.59545898 12.84008789 C-0.29647482 11.14042378 -2.00842911 10.12892673 -4.32641602 9.11352539 C-4.42407227 2.96118164 -4.42407227 2.96118164 -4.32641602 1.11352539 C-3.32641602 0.11352539 -3.32641602 0.11352539 0 0 Z " fill="#78F04E" transform="translate(230.326416015625,108.886474609375)"/>
<path d="M0 0 C0.495 0.99 0.495 0.99 1 2 C-5.27 2 -11.54 2 -18 2 C-18.32613281 3.43214844 -18.65226563 4.86429687 -18.98828125 6.33984375 C-19.42900581 8.2058903 -19.87044925 10.07176717 -20.3125 11.9375 C-20.52583984 12.88302734 -20.73917969 13.82855469 -20.95898438 14.80273438 C-21.17490234 15.70185547 -21.39082031 16.60097656 -21.61328125 17.52734375 C-21.80704346 18.35999756 -22.00080566 19.19265137 -22.20043945 20.05053711 C-22.46429443 20.69385986 -22.72814941 21.33718262 -23 22 C-23.99 22.33 -24.98 22.66 -26 23 C-27.17213045 21.21190303 -28.33755526 19.41940875 -29.5 17.625 C-30.1496875 16.62726563 -30.799375 15.62953125 -31.46875 14.6015625 C-33 12 -33 12 -33 10 C-29.63672037 10.56054661 -27.00887781 11.41841038 -24 13 C-23.90203125 12.32453125 -23.8040625 11.6490625 -23.703125 10.953125 C-23.06121542 7.12380235 -22.43663722 3.79733753 -20.5625 0.375 C-14.70690295 -2.76702768 -6.34101822 -1.37848222 0 0 Z " fill="#8CDE68" transform="translate(271,117)"/>
<path d="M0 0 C0 0.66 0 1.32 0 2 C0.99 2 1.98 2 3 2 C3.3403125 2.86625 3.3403125 2.86625 3.6875 3.75 C4.8950856 6.20294041 4.8950856 6.20294041 7.5625 7.6875 C10.76494736 10.72571929 10.70230796 12.90353883 10.95703125 17.171875 C10.97121094 17.77515625 10.98539063 18.3784375 11 19 C10.34 19 9.68 19 9 19 C9 18.34 9 17.68 9 17 C7.68 17 6.36 17 5 17 C5 15.68 5 14.36 5 13 C4.34 13 3.68 13 3 13 C3 12.34 3 11.68 3 11 C2.34 11 1.68 11 1 11 C1 11.66 1 12.32 1 13 C-1.475 12.01 -1.475 12.01 -4 11 C-4.12375 9.865625 -4.2475 8.73125 -4.375 7.5625 C-4.58125 6.386875 -4.7875 5.21125 -5 4 C-5.66 3.67 -6.32 3.34 -7 3 C-7 2.34 -7 1.68 -7 1 C-4.50935112 0.31292445 -2.62113708 0 0 0 Z " fill="#F404F8" transform="translate(225,161)"/>
<path d="M0 0 C4.32176105 2.28799114 8.17762451 4.96556141 11 9 C11.65715251 11.35149755 12.0489333 13.66502963 12.43359375 16.07421875 C12.85617861 18.31732984 12.85617861 18.31732984 15.625 19.5625 C16.40875 19.706875 17.1925 19.85125 18 20 C16.35 22.31 14.7 24.62 13 27 C10 26 10 26 8 23 C7.34 22.34 6.68 21.68 6 21 C6.28020455 18.9918674 6.62406934 16.9924325 7 15 C7.03762951 12.66697011 7.04665734 10.33286681 7 8 C6.01 7.67 5.02 7.34 4 7 C3.34 6.34 2.68 5.68 2 5 C1.34 4.67 0.68 4.34 0 4 C0 2.68 0 1.36 0 0 Z " fill="#DE07EF" transform="translate(228,163)"/>
<path d="M0 0 C0.96281832 8.19136203 1.50280568 15.29382751 -2 23 C-2.66 23 -3.32 23 -4 23 C-4.66 21.02 -5.32 19.04 -6 17 C-6.33 17 -6.66 17 -7 17 C-7.33 14.69 -7.66 12.38 -8 10 C-7.34 9.67 -6.68 9.34 -6 9 C-6.103125 8.2575 -6.20625 7.515 -6.3125 6.75 C-6 4 -6 4 -3.5625 1.6875 C-1 0 -1 0 0 0 Z " fill="#B60EE1" transform="translate(250,193)"/>
<path d="M0 0 C-1.89453221 0.64964023 -3.79068649 1.29455115 -5.6875 1.9375 C-7.27111328 2.47697266 -7.27111328 2.47697266 -8.88671875 3.02734375 C-14.42011287 4.75609549 -19.51267648 5.14830234 -25.29296875 5.1328125 C-26.08020828 5.13376923 -26.86744781 5.13472595 -27.67854309 5.13571167 C-29.335094 5.1363898 -30.99164761 5.13456121 -32.64819336 5.13037109 C-35.18935047 5.12499609 -37.73033257 5.13033949 -40.27148438 5.13671875 C-41.88281289 5.13605832 -43.4941413 5.1347779 -45.10546875 5.1328125 C-45.86691696 5.13483673 -46.62836517 5.13686096 -47.41288757 5.13894653 C-52.77004917 5.11497542 -52.77004917 5.11497542 -55 4 C-54.67 3.01 -54.34 2.02 -54 1 C-54 1.66 -54 2.32 -54 3 C-49.44643905 2.90577254 -44.89336703 2.79953368 -40.34033203 2.68261719 C-38.79450965 2.64456022 -37.24860572 2.60966868 -35.70263672 2.578125 C-33.46812982 2.53196346 -31.23417329 2.4740602 -29 2.4140625 C-28.31945557 2.40251129 -27.63891113 2.39096008 -26.93774414 2.37905884 C-22.00153727 2.23046955 -17.73186198 1.29460767 -13 0 C-11.42336148 -0.27142729 -9.84001139 -0.51050968 -8.25 -0.6875 C-7.17492187 -0.81705078 -7.17492187 -0.81705078 -6.078125 -0.94921875 C-3.86936995 -1.00319209 -2.10840377 -0.6315714 0 0 Z " fill="#8AE54B" transform="translate(292,245)"/>
<path d="M0 0 C14.33653396 0.33972829 28.05458399 1.51245996 39 12 C40.2734375 14.72265625 40.2734375 14.72265625 41 17 C40.01 17 39.02 17 38 17 C38 15.68 38 14.36 38 13 C37.28972656 12.95101562 36.57945312 12.90203125 35.84765625 12.8515625 C34.92855469 12.77679688 34.00945312 12.70203125 33.0625 12.625 C32.14597656 12.55539063 31.22945313 12.48578125 30.28515625 12.4140625 C29.15400391 12.20910156 29.15400391 12.20910156 28 12 C27.67 11.34 27.34 10.68 27 10 C27.66 10 28.32 10 29 10 C29 9.01 29 8.02 29 7 C22.25846717 5.74158054 15.86515862 4.73595544 9 5 C9 4.34 9 3.68 9 3 C6.03 2.67 3.06 2.34 0 2 C0 1.34 0 0.68 0 0 Z " fill="#84E060" transform="translate(265,108)"/>
<path d="M0 0 C5.27932372 0.74120307 10.55080722 1.5170657 15.8125 2.375 C16.57498047 2.4884375 17.33746094 2.601875 18.12304688 2.71875 C20.10090706 3.04751898 22.05450043 3.51517902 24 4 C24.99 5.485 24.99 5.485 26 7 C16.63250185 7.1820896 7.3412692 6.61326035 -2 6 C-1.34 4.02 -0.68 2.04 0 0 Z " fill="#73FB16" transform="translate(241,241)"/>
<path d="M0 0 C0.66 0 1.32 0 2 0 C0.55690235 6.13316502 -1.11506494 10.18852915 -6.6875 13.6875 C-10.04661062 15.01846836 -13.22785156 15.75969947 -16.7578125 16.4609375 C-18.93061799 16.98331931 -20.78600454 17.69437762 -22.8125 18.625 C-26 20 -26 20 -30 20 C-30 20.99 -30 21.98 -30 23 C-28.02 23.33 -26.04 23.66 -24 24 C-27.30435084 25.12377697 -29.0506862 24.89554742 -32.25 23.5625 C-33.30960938 23.13130859 -33.30960938 23.13130859 -34.390625 22.69140625 C-34.92171875 22.46324219 -35.4528125 22.23507813 -36 22 C-35.505 20.515 -35.505 20.515 -35 19 C-33.0390625 18.26953125 -33.0390625 18.26953125 -30.625 17.8125 C-29.83351563 17.65394531 -29.04203125 17.49539062 -28.2265625 17.33203125 C-26 17 -26 17 -23 17 C-22.67 16.01 -22.34 15.02 -22 14 C-20.515 14.0928125 -20.515 14.0928125 -19 14.1875 C-13.60514897 14.1765571 -8.9762506 12.49554099 -4.6875 9.25 C-2.48717595 6.3162346 -1.31607813 3.42180313 0 0 Z " fill="#8CAB69" transform="translate(286,154)"/>
<path d="M0 0 C0.33 0.99 0.66 1.98 1 3 C2.32 3 3.64 3 5 3 C5 3.66 5 4.32 5 5 C5.99 5 6.98 5 8 5 C7.1875 7.9375 7.1875 7.9375 6 11 C5.01 11.33 4.02 11.66 3 12 C2.67 9.69 2.34 7.38 2 5 C1.46632812 5.27714844 0.93265625 5.55429688 0.3828125 5.83984375 C-5.43425414 8.66786404 -10.5548024 9.73088945 -17 10 C-17 9.34 -17 8.68 -17 8 C-15.91332031 7.63648438 -15.91332031 7.63648438 -14.8046875 7.265625 C-9.33085389 5.36802935 -4.62764053 3.50199824 0 0 Z " fill="#9836AC" transform="translate(230,235)"/>
<path d="M0 0 C0.66 0 1.32 0 2 0 C2 0.66 2 1.32 2 2 C2.66 2 3.32 2 4 2 C5.22508165 7.72677056 5.14785805 13.36250613 5.125 19.1875 C5.12886719 20.18458984 5.13273438 21.18167969 5.13671875 22.20898438 C5.13542969 23.16482422 5.13414062 24.12066406 5.1328125 25.10546875 C5.13168457 25.97324951 5.13055664 26.84103027 5.12939453 27.73510742 C5 30 5 30 4 33 C3.34 33 2.68 33 2 33 C2 34.98 2 36.96 2 39 C0.03533587 40.06775224 -1.96855359 41.06553465 -4 42 C-4.66 41.67 -5.32 41.34 -6 41 C-5.60167969 40.52691406 -5.20335937 40.05382812 -4.79296875 39.56640625 C2.09181538 30.97298956 4.06089806 22.97621452 3 12 C2.19543538 7.93556147 1.18255317 3.96999992 0 0 Z " fill="#972EB2" transform="translate(237,193)"/>
<path d="M0 0 C4.42159791 2.17060261 7.27058188 4.90587283 10 9 C10 9.99 10 10.98 10 12 C9.34 12 8.68 12 8 12 C7.38125 11.21625 6.7625 10.4325 6.125 9.625 C3.47216814 6.34797241 1.57485522 5.25293129 -2.578125 4.5859375 C-3.45984375 4.51632813 -4.3415625 4.44671875 -5.25 4.375 C-6.14203125 4.30023438 -7.0340625 4.22546875 -7.953125 4.1484375 C-8.96632812 4.07496094 -8.96632812 4.07496094 -10 4 C-10 3.34 -10 2.68 -10 2 C-11.65 2 -13.3 2 -15 2 C-10.21087071 -0.81052189 -5.40590069 -0.63552679 0 0 Z " fill="#B238B2" transform="translate(220,213)"/>
<path d="M0 0 C6.15640664 5.57171998 6.74218111 14.00380723 7.25 21.875 C7.1565585 28.76297324 4.21679343 35.02595506 1 41 C0.67 41 0.34 41 0 41 C-0.37704918 36.47540984 -0.37704918 36.47540984 1.4375 34.1875 C6.04610337 27.73545528 4.09002222 16.68189653 4 9 C2.68 8.67 1.36 8.34 0 8 C0 5.36 0 2.72 0 0 Z " fill="#9A2CB0" transform="translate(247,182)"/>
<path d="M0 0 C5.46619807 6.654502 4.47578992 14.79262389 4 23 C2.52909806 30.67897337 -1.28098183 36.68948313 -7 42 C-7.66 41.67 -8.32 41.34 -9 41 C-7.38405168 38.95880212 -5.7143618 36.95927063 -4 35 C-3.34 35 -2.68 35 -2 35 C-1.37978045 32.07610785 -0.90945156 29.2238705 -0.5625 26.25 C-0.376875 25.1775 -0.19125 24.105 0 23 C0.66 22.67 1.32 22.34 2 22 C2.02708567 20.39592672 2.04643483 18.7917215 2.0625 17.1875 C2.07410156 16.29417969 2.08570313 15.40085938 2.09765625 14.48046875 C1.96355664 11.07433869 1.42581871 9.42581871 -1 7 C-0.625 3.375 -0.625 3.375 0 0 Z " fill="#83DD57" transform="translate(306,125)"/>
<path d="M0 0 C2.97 0.33 5.94 0.66 9 1 C9.103125 1.78375 9.20625 2.5675 9.3125 3.375 C9.77595022 6.33045181 9.77595022 6.33045181 13 8 C13.6875 11.125 13.6875 11.125 14 14 C14.66 14 15.32 14 16 14 C16 14.99 16 15.98 16 17 C15.34 17 14.68 17 14 17 C14 16.34 14 15.68 14 15 C13.401875 14.92265625 12.80375 14.8453125 12.1875 14.765625 C9.25957708 13.74085198 8.59756431 12.37208924 7 9.75 C4.84205566 6.31591091 2.6117103 3.11396228 0 0 Z " fill="#C81AD4" transform="translate(225,178)"/>
<path d="M0 0 C0.99 0 1.98 0 3 0 C3 0.66 3 1.32 3 2 C11.73952546 3.44796872 20.13911833 4.29211698 29 4 C27.0234375 6.0703125 27.0234375 6.0703125 24 8 C20.96779798 7.85048314 18.53915915 7.5373089 15.625 6.875 C14.89539063 6.730625 14.16578125 6.58625 13.4140625 6.4375 C8.87268974 5.51300626 4.43993536 4.3237802 0 3 C-0.2165625 3.928125 -0.2165625 3.928125 -0.4375 4.875 C-1 7 -1 7 -2 9 C3.61 9 9.22 9 15 9 C15 9.33 15 9.66 15 10 C9.06 10 3.12 10 -3 10 C-2 3 -2 3 0 0 Z " fill="#82F12D" transform="translate(241,238)"/>
<path d="M0 0 C3.21946315 3.11214772 5.55891051 5.67673153 7 10 C6.64032019 12.66450805 6.21144243 15.24343397 5.6875 17.875 C5.55666016 18.58269531 5.42582031 19.29039062 5.29101562 20.01953125 C4.54799913 23.87460232 3.6092086 27.41617298 2 31 C1.01 30.67 0.02 30.34 -1 30 C-1 27.36 -1 24.72 -1 22 C-0.01 22 0.98 22 2 22 C3.66997441 20.33002559 3.2114271 18.35437312 3.25 16.0625 C3.21981702 10.29755164 1.9635549 5.38808815 0 0 Z " fill="#B63DB4" transform="translate(240,132)"/>
<path d="M0 0 C1.47583955 0.0001591 2.95168467 0.00585225 4.42749023 0.01586914 C5.20293686 0.01728409 5.97838348 0.01869904 6.77732849 0.02015686 C9.26361893 0.02577194 11.74982059 0.03832693 14.23608398 0.05102539 C15.91772331 0.05603845 17.59936405 0.06060169 19.28100586 0.06469727 C23.41189965 0.07574626 27.54272674 0.09302094 31.67358398 0.11352539 C31.67358398 0.44352539 31.67358398 0.77352539 31.67358398 1.11352539 C20.45358398 1.44352539 9.23358398 1.77352539 -2.32641602 2.11352539 C-2.32641602 4.09352539 -2.32641602 6.07352539 -2.32641602 8.11352539 C-1.79016602 8.31977539 -1.25391602 8.52602539 -0.70141602 8.73852539 C2.67534938 10.69349483 4.97833237 13.29576234 7.67358398 16.11352539 C7.34358398 16.77352539 7.01358398 17.43352539 6.67358398 18.11352539 C6.21467773 17.63141602 5.75577148 17.14930664 5.28295898 16.65258789 C4.66936523 16.02094727 4.05577148 15.38930664 3.42358398 14.73852539 C2.82030273 14.11204102 2.21702148 13.48555664 1.59545898 12.84008789 C-0.29647482 11.14042378 -2.00842911 10.12892673 -4.32641602 9.11352539 C-4.42407227 2.96118164 -4.42407227 2.96118164 -4.32641602 1.11352539 C-3.32641602 0.11352539 -3.32641602 0.11352539 0 0 Z " fill="#94C878" transform="translate(230.326416015625,108.886474609375)"/>
<path d="M0 0 C-1.65 0.33 -3.3 0.66 -5 1 C-5 1.99 -5 2.98 -5 4 C-3.7625 4.4125 -2.525 4.825 -1.25 5.25 C-0.44046875 5.52199219 0.3690625 5.79398438 1.203125 6.07421875 C3.20852244 6.73801651 5.21969344 7.38446859 7.234375 8.01953125 C8.85085938 8.53580078 8.85085938 8.53580078 10.5 9.0625 C12.03140625 9.54396484 12.03140625 9.54396484 13.59375 10.03515625 C16 11 16 11 17 13 C14.43635601 12.37942343 11.87415074 11.75370801 9.3125 11.125 C8.59126953 10.95097656 7.87003906 10.77695313 7.12695312 10.59765625 C3.27971155 9.64902134 -0.35715569 8.59509159 -4 7 C-4 6.34 -4 5.68 -4 5 C-6.97 4.505 -6.97 4.505 -10 4 C-10 3.01 -10 2.02 -10 1 C-3.71428571 -1.42857143 -3.71428571 -1.42857143 0 0 Z " fill="#86E04B" transform="translate(266,173)"/>
<path d="M0 0 C0.33 0 0.66 0 1 0 C0.5547115 5.27315333 -0.08373163 10.01770224 -2 15 C-2.66 15 -3.32 15 -4 15 C-5.5078125 13.1015625 -5.5078125 13.1015625 -7.125 10.625 C-7.66382813 9.81289062 -8.20265625 9.00078125 -8.7578125 8.1640625 C-10 6 -10 6 -10 4 C-6.65626525 4.55728913 -3.96687001 5.35173889 -1 7 C-0.67 4.69 -0.34 2.38 0 0 Z " fill="#7DE753" transform="translate(248,123)"/>
<path d="M0 0 C0.99 0 1.98 0 3 0 C3.66 1.65 4.32 3.3 5 5 C3.35 4.67 1.7 4.34 0 4 C-0.28875 4.886875 -0.5775 5.77375 -0.875 6.6875 C-1.83148748 9.50382424 -2.86798946 12.25083156 -4 15 C-3.34 15.33 -2.68 15.66 -2 16 C-3.98 16.33 -5.96 16.66 -8 17 C-8 15.68 -8 14.36 -8 13 C-7.34 12.67 -6.68 12.34 -6 12 C-5.26928667 10.38158416 -4.6122162 8.72935426 -4 7.0625 C-2.21412301 2.21412301 -2.21412301 2.21412301 0 0 Z " fill="#95997A" transform="translate(241,234)"/>
<path d="M0 0 C4.16831787 3.82971502 5.72722143 8.33404409 6.29296875 13.86328125 C6.50255006 21.39822851 6.50255006 21.39822851 4.4765625 23.82421875 C3.74566406 24.40623047 3.74566406 24.40623047 3 25 C2 24 2 24 1.9375 20.9375 C1.958125 19.968125 1.97875 18.99875 2 18 C2.66 18 3.32 18 4 18 C3.67 14.37 3.34 10.74 3 7 C2.34 7 1.68 7 1 7 C0.67 4.69 0.34 2.38 0 0 Z " fill="#DD16DD" transform="translate(238,131)"/>
<path d="M0 0 C0.33 0 0.66 0 1 0 C0.67 4.29 0.34 8.58 0 13 C-0.66 12.01 -1.32 11.02 -2 10 C-2.33 15.61 -2.66 21.22 -3 27 C-3.33 27 -3.66 27 -4 27 C-5.17670301 16.56868683 -5.1594785 9.38087 0 0 Z " fill="#C03FBC" transform="translate(200,147)"/>
<path d="M0 0 C0.66 0 1.32 0 2 0 C1.45276317 3.37462715 0.9451 5.08235 -1 8 C-1.66 8 -2.32 8 -3 8 C-3.33 8.99 -3.66 9.98 -4 11 C-6.21484375 12.60546875 -6.21484375 12.60546875 -8.9375 14.1875 C-9.83339844 14.71730469 -10.72929687 15.24710938 -11.65234375 15.79296875 C-14 17 -14 17 -16 17 C-14.84458709 13.53376127 -14.28681493 13.30353111 -11.25 11.5625 C-3.92974608 7.27281848 -3.92974608 7.27281848 0 0 Z " fill="#91E840" transform="translate(308,227)"/>
<path d="M0 0 C0.33 0.66 0.66 1.32 1 2 C1.99 2.33 2.98 2.66 4 3 C1.69 3.33 -0.62 3.66 -3 4 C-3.33 5.65 -3.66 7.3 -4 9 C-5.9375 9.5625 -5.9375 9.5625 -8 10 C-8.33 9.67 -8.66 9.34 -9 9 C-10.51928038 8.92820036 -12.04167482 8.91607993 -13.5625 8.9375 C-14.80193359 8.95103516 -14.80193359 8.95103516 -16.06640625 8.96484375 C-16.70449219 8.97644531 -17.34257812 8.98804688 -18 9 C-17.67 8.34 -17.34 7.68 -17 7 C-15.10185872 6.47015075 -13.17967284 6.02505412 -11.25 5.625 C-6.59444706 4.54424664 -3.40798116 3.52969477 0 0 Z " fill="#75F33E" transform="translate(284,163)"/>
<path d="M0 0 C5.61 0.33 11.22 0.66 17 1 C17.66 2.32 18.32 3.64 19 5 C15.7 5 12.4 5 9 5 C9 4.34 9 3.68 9 3 C6.03 2.67 3.06 2.34 0 2 C0 1.34 0 0.68 0 0 Z " fill="#72EA54" transform="translate(265,108)"/>
<path d="M0 0 C4.75 1.875 4.75 1.875 7 3 C7 2.34 7 1.68 7 1 C7.66 1 8.32 1 9 1 C9 1.66 9 2.32 9 3 C9.66 3 10.32 3 11 3 C11 4.32 11 5.64 11 7 C12.32 7.33 13.64 7.66 15 8 C11.96439191 9.33566756 10.73801229 8.91578966 7.5 7.875 C3.92028072 5.95729324 2.21031602 4.35968035 0 1 C0 0.67 0 0.34 0 0 Z " fill="#ED08EF" transform="translate(219,171)"/>
<path d="M0 0 C0.33 0 0.66 0 1 0 C1.74507544 6.37305598 2.10349817 12.58311325 2 19 C0.68 19.33 -0.64 19.66 -2 20 C-1.86177801 16.85378318 -1.71314916 13.70814434 -1.5625 10.5625 C-1.52318359 9.66466797 -1.48386719 8.76683594 -1.44335938 7.84179688 C-1.40146484 6.98779297 -1.35957031 6.13378906 -1.31640625 5.25390625 C-1.27974854 4.46314697 -1.24309082 3.6723877 -1.20532227 2.85766602 C-1 1 -1 1 0 0 Z " fill="#D135CA" transform="translate(198,156)"/>
<path d="M0 0 C0.66 0.33 1.32 0.66 2 1 C1.67 1.66 1.34 2.32 1 3 C0.34 3 -0.32 3 -1 3 C-1 3.99 -1 4.98 -1 6 C0.98 5.67 2.96 5.34 5 5 C4.01 5.495 4.01 5.495 3 6 C3 6.99 3 7.98 3 9 C-0.3 9.33 -3.6 9.66 -7 10 C-5.6062718 5.56541027 -3.39417765 3.12621626 0 0 Z " fill="#AC2BB5" transform="translate(250,155)"/>
<path d="M0 0 C1.31571603 0.2547514 2.62760376 0.52934141 3.9375 0.8125 C4.66839844 0.96332031 5.39929688 1.11414063 6.15234375 1.26953125 C6.76207031 1.51058594 7.37179687 1.75164062 8 2 C8.33 2.99 8.66 3.98 9 5 C7.68 6.32 6.36 7.64 5 9 C3 8 3 8 1 5 C0.01 5 -0.98 5 -2 5 C-2 4.01 -2 3.02 -2 2 C-1.34 2 -0.68 2 0 2 C0 1.34 0 0.68 0 0 Z " fill="#CD15E4" transform="translate(251,156)"/>
<path d="M0 0 C14.78132118 -0.3690205 14.78132118 -0.3690205 21 2 C20.52634425 6.26290179 18.07761678 8.21548958 15 11 C14.01 11.66 13.02 12.32 12 13 C13.47692308 8.32307692 13.47692308 8.32307692 16.125 6.6875 C16.74375 6.460625 17.3625 6.23375 18 6 C18 4.68 18 3.36 18 2 C12.06 1.67 6.12 1.34 0 1 C0 0.67 0 0.34 0 0 Z " fill="#893A9D" transform="translate(257,151)"/>
<path d="M0 0 C0.94875 0.04125 1.8975 0.0825 2.875 0.125 C2.875 4.03338866 1.36932124 5.24094107 -1.125 8.125 C-2.115 7.795 -3.105 7.465 -4.125 7.125 C-4.75 4.75 -4.75 4.75 -5.125 2.125 C-3.125 0.125 -3.125 0.125 0 0 Z " fill="#D208EE" transform="translate(242.125,181.875)"/>
<path d="M0 0 C3.96 0 7.92 0 12 0 C12 0.99 12 1.98 12 3 C10.25181409 3.22304441 8.50129677 3.4278645 6.75 3.625 C5.77546875 3.74101562 4.8009375 3.85703125 3.796875 3.9765625 C0.86570607 4.00112537 -0.54528964 3.5312717 -3 2 C-2.01 2 -1.02 2 0 2 C0 1.34 0 0.68 0 0 Z " fill="#BA31B7" transform="translate(198,215)"/>
<path d="M0 0 C0.33 0 0.66 0 1 0 C1.4756194 23.01469425 1.4756194 23.01469425 -3.125 28.5625 C-3.74375 29.036875 -4.3625 29.51125 -5 30 C-5 26.76450177 -4.32721608 25.25150214 -3.0625 22.3125 C-0.28938682 15.02205403 -0.19345855 7.70932341 0 0 Z " fill="#87D250" transform="translate(293,202)"/>
<path d="M0 0 C0.80824219 0.11085937 1.61648437 0.22171875 2.44921875 0.3359375 C3.37154297 0.47902344 3.37154297 0.47902344 4.3125 0.625 C3.6525 1.945 2.9925 3.265 2.3125 4.625 C-0.6575 4.625 -3.6275 4.625 -6.6875 4.625 C-7.0175 3.635 -7.3475 2.645 -7.6875 1.625 C-4.33422361 -0.61051759 -3.78006343 -0.54783528 0 0 Z " fill="#A6459D" transform="translate(207.6875,174.375)"/>
<path d="M0 0 C0.66 0 1.32 0 2 0 C0.54427919 6.18681345 -1.16064132 10.19313538 -6.75 13.75 C-10.60188037 15.23149245 -13.89671349 15.6462684 -18 16 C-15.49123194 14.32748796 -13.84047066 13.53143956 -11.0625 12.625 C-6.82164061 11.05603737 -4.17338261 9.35692437 -2.09765625 5.1875 C-1.35005399 3.47869484 -0.66956327 1.74086451 0 0 Z " fill="#85D05D" transform="translate(286,154)"/>
<path d="M0 0 C0.66 0.33 1.32 0.66 2 1 C1.67 6.61 1.34 12.22 1 18 C-4.14860706 16.71284823 -4.86461447 15.09341999 -8 11 C-5.525 11.99 -5.525 11.99 -3 13 C-3 13.66 -3 14.32 -3 15 C-2.34 15 -1.68 15 -1 15 C-0.67 10.05 -0.34 5.1 0 0 Z " fill="#B233B0" transform="translate(236,148)"/>
<path d="M0 0 C0.99 0 1.98 0 3 0 C4.08360869 6.06820868 3.79074734 10.10106757 2 16 C1.67 16 1.34 16 1 16 C-0.12862175 10.63904667 -0.09688221 5.44693314 0 0 Z " fill="#BD39B1" transform="translate(206,131)"/>
<path d="M0 0 C-7.07555499 3.0017506 -13.37048445 3.34855655 -21 3 C-21 2.67 -21 2.34 -21 2 C-6.51305903 -1.9509839 -6.51305903 -1.9509839 0 0 Z " fill="#85E63B" transform="translate(292,245)"/>
<path d="M0 0 C5.90867819 1.29702692 9.28147511 4.42788232 13 9 C14.4375 11.9375 14.4375 11.9375 15 14 C11.1052222 12.52267049 10.02354496 10.54120367 8 7 C5.61759651 4.31979608 4.43387177 3.14462392 1 2 C1 3.65 1 5.3 1 7 C0.67 7 0.34 7 0 7 C0 4.69 0 2.38 0 0 Z " fill="#B250A0" transform="translate(225,118)"/>
<path d="M0 0 C1.965641 2.20151792 2.94943764 3.49725434 3.2487793 6.47363281 C3.16237183 7.82473145 3.16237183 7.82473145 3.07421875 9.203125 C2.99204102 10.67265625 2.99204102 10.67265625 2.90820312 12.171875 C2.83537109 13.18765625 2.76253906 14.2034375 2.6875 15.25 C2.62626953 16.28125 2.56503906 17.3125 2.50195312 18.375 C2.3489076 20.91791028 2.18109518 23.45895864 2 26 C1.34 26.33 0.68 26.66 0 27 C0.33 19.74 0.66 12.48 1 5 C0.34 4.67 -0.32 4.34 -1 4 C-0.67 2.68 -0.34 1.36 0 0 Z " fill="#82EC36" transform="translate(293,197)"/>
<path d="M0 0 C1.2065625 0.0309375 1.2065625 0.0309375 2.4375 0.0625 C2.7675 0.7225 3.0975 1.3825 3.4375 2.0625 C5.54765954 3.18956706 5.54765954 3.18956706 8 4.1875 C8.82628906 4.54070312 9.65257812 4.89390625 10.50390625 5.2578125 C11.46103516 5.65613281 11.46103516 5.65613281 12.4375 6.0625 C12.1075 6.7225 11.7775 7.3825 11.4375 8.0625 C10.4475 7.4025 9.4575 6.7425 8.4375 6.0625 C6.55595117 5.62138435 4.65687362 5.2515733 2.75 4.9375 C1.75613281 4.76992187 0.76226562 4.60234375 -0.26171875 4.4296875 C-1.02097656 4.30851563 -1.78023438 4.18734375 -2.5625 4.0625 C-2.8925 3.0725 -3.2225 2.0825 -3.5625 1.0625 C-2.5625 0.0625 -2.5625 0.0625 0 0 Z " fill="#7DD94C" transform="translate(286.5625,171.9375)"/>
<path d="M0 0 C5.26964527 2.63482263 8.97903554 6.79943911 13 11 C12.01 11.33 11.02 11.66 10 12 C9.54625 11.505 9.0925 11.01 8.625 10.5 C7.12364481 8.77390663 7.12364481 8.77390663 5 9 C3.7109375 7.5390625 3.7109375 7.5390625 2.375 5.625 C1.92898437 4.99851563 1.48296875 4.37203125 1.0234375 3.7265625 C0 2 0 2 0 0 Z " fill="#D521D0" transform="translate(215,151)"/>
<path d="M0 0 C6.875 0.875 6.875 0.875 8 2 C8.04080783 3.99958364 8.04254356 6.00045254 8 8 C4.125 6.25 4.125 6.25 3 4 C2.01 4 1.02 4 0 4 C0 2.68 0 1.36 0 0 Z " fill="#F30CEE" transform="translate(234,141)"/>
<path d="M0 0 C0 0.99 0 1.98 0 3 C-4.53701494 4.45184478 -8.18061476 5.23509196 -13 5 C-13 4.34 -13 3.68 -13 3 C-11.21189234 2.30329584 -9.41937948 1.61788811 -7.625 0.9375 C-6.62726563 0.55464844 -5.62953125 0.17179688 -4.6015625 -0.22265625 C-2 -1 -2 -1 0 0 Z " fill="#82448B" transform="translate(226,240)"/>
<path d="M0 0 C0.33 0.99 0.66 1.98 1 3 C0.67 3.66 0.34 4.32 0 5 C-0.99 5 -1.98 5 -3 5 C-3 5.66 -3 6.32 -3 7 C-5.31 7.66 -7.62 8.32 -10 9 C-8.77946141 5.33838422 -7.63217696 4.83729526 -4.4375 2.8125 C-3.61121094 2.28269531 -2.78492188 1.75289062 -1.93359375 1.20703125 C-1.29550781 0.80871094 -0.65742188 0.41039062 0 0 Z " fill="#88E93C" transform="translate(288,231)"/>
<path d="M0 0 C2.0625 0.4375 2.0625 0.4375 4 1 C3.34 1.66 2.68 2.32 2 3 C1.01 3 0.02 3 -1 3 C-1 3.66 -1 4.32 -1 5 C1.31 4.34 3.62 3.68 6 3 C6.99 3.99 7.98 4.98 9 6 C8.67 6.33 8.34 6.66 8 7 C6.30858344 6.91036938 4.62040398 6.75422324 2.9375 6.5625 C1.55884766 6.40974609 1.55884766 6.40974609 0.15234375 6.25390625 C-0.55792969 6.17011719 -1.26820313 6.08632812 -2 6 C-1.125 1.125 -1.125 1.125 0 0 Z " fill="#BC19CE" transform="translate(248,164)"/>
<path d="M0 0 C2.93200474 2.85276137 5.64315404 5.65079784 8 9 C6.88625 8.9690625 6.88625 8.9690625 5.75 8.9375 C3.29537721 8.99328688 1.33890739 9.3069904 -1 10 C-0.835 9.0925 -0.67 8.185 -0.5 7.25 C0.10137146 3.88912497 0.10137146 3.88912497 0 0 Z " fill="#77F830" transform="translate(299,178)"/>
<path d="M0 0 C4.82675589 2.41337795 7.69984002 5.86062408 11 10 C10.01 10 9.02 10 8 10 C8 9.34 8 8.68 8 8 C7.38125 7.87625 6.7625 7.7525 6.125 7.625 C4 7 4 7 2 5 C1.34 4.67 0.68 4.34 0 4 C0 2.68 0 1.36 0 0 Z " fill="#CC21D1" transform="translate(228,163)"/>
<path d="M0 0 C2.75 -0.25 2.75 -0.25 6 0 C8.375 2 8.375 2 10 4 C9.67 4.99 9.34 5.98 9 7 C7.68176698 6.40844669 6.37052949 5.80128537 5.0625 5.1875 C4.33160156 4.85105469 3.60070312 4.51460938 2.84765625 4.16796875 C1 3 1 3 0 0 Z " fill="#79E94A" transform="translate(271,117)"/>
<path d="M0 0 C-0.57344937 2.86724686 -0.8614515 3.8614515 -3 6 C-5.625 6.125 -5.625 6.125 -8 6 C-8 5.01 -8 4.02 -8 3 C-5.11165997 0.89229241 -3.61537605 0 0 0 Z " fill="#AD16D6" transform="translate(239,232)"/>
<path d="M0 0 C5.47613669 1.18112752 8.3094788 2.52664097 12 7 C12 7.66 12 8.32 12 9 C11.01 9 10.02 9 9 9 C9 7.68 9 6.36 9 5 C8.28972656 4.95101562 7.57945312 4.90203125 6.84765625 4.8515625 C5.92855469 4.77679688 5.00945312 4.70203125 4.0625 4.625 C2.68771484 4.52058594 2.68771484 4.52058594 1.28515625 4.4140625 C0.15400391 4.20910156 0.15400391 4.20910156 -1 4 C-1.33 3.34 -1.66 2.68 -2 2 C-1.34 2 -0.68 2 0 2 C0 1.34 0 0.68 0 0 Z " fill="#7CED44" transform="translate(294,116)"/>
<path d="M0 0 C2.50037734 2.17424117 3.43628586 3.73045798 4 7 C3.34 7 2.68 7 2 7 C2.33 8.98 2.66 10.96 3 13 C0.46800028 10.46800028 -0.11946497 8.45440665 -1 5 C-0.625 2.125 -0.625 2.125 0 0 Z " fill="#EE0FEA" transform="translate(210,145)"/>
<path d="M0 0 C1.32 0.33 2.64 0.66 4 1 C3.01 2.485 3.01 2.485 2 4 C1.24902731 6.04735986 0.54449433 8.11206759 -0.125 10.1875 C-0.47820312 11.27417969 -0.83140625 12.36085937 -1.1953125 13.48046875 C-1.46085938 14.31191406 -1.72640625 15.14335937 -2 16 C-2.33 16 -2.66 16 -3 16 C-2.57910004 10.39538469 -2.08386889 5.27913453 0 0 Z " fill="#CF25C2" transform="translate(226,120)"/>
<path d="M0 0 C2 2 2 2 2.1953125 4.1640625 C2.17210937 4.97617188 2.14890625 5.78828125 2.125 6.625 C2.10695312 7.44226563 2.08890625 8.25953125 2.0703125 9.1015625 C2.03550781 10.04128906 2.03550781 10.04128906 2 11 C1.34 11 0.68 11 0 11 C-1.82941851 7.23355012 -2.23162684 5.03077875 -1 1 C-0.67 0.67 -0.34 0.34 0 0 Z " fill="#CB2BC3" transform="translate(190,192)"/>
<path d="M0 0 C0.33 0.99 0.66 1.98 1 3 C6.61 3 12.22 3 18 3 C14.56060073 5.29293284 13.17437319 5.27019638 9.125 5.25 C7.58199219 5.25773438 7.58199219 5.25773438 6.0078125 5.265625 C2.963718 4.99679588 0.7565465 4.28164154 -2 3 C-1.34 2.01 -0.68 1.02 0 0 Z " fill="#9C41A1" transform="translate(245,167)"/>
<path d="M0 0 C0.33 0.66 0.66 1.32 1 2 C1.99 2 2.98 2 4 2 C3.1875 4.9375 3.1875 4.9375 2 8 C1.01 8.33 0.02 8.66 -1 9 C-1.09765625 2.84765625 -1.09765625 2.84765625 -1 1 C-0.67 0.67 -0.34 0.34 0 0 Z " fill="#863498" transform="translate(234,238)"/>
<path d="M0 0 C0.66 0.33 1.32 0.66 2 1 C0.90575686 4.28272943 0.02553423 6.47032848 -3.1328125 8.1015625 C-5.42879526 8.89149869 -7.60496917 9.5955261 -10 10 C-10.66 9.67 -11.32 9.34 -12 9 C-9.03 8.01 -6.06 7.02 -3 6 C-3 5.01 -3 4.02 -3 3 C-2.01 3 -1.02 3 0 3 C0 2.01 0 1.02 0 0 Z " fill="#A72CBC" transform="translate(268,161)"/>
<path d="M0 0 C0.66 0.33 1.32 0.66 2 1 C1.55090939 2.48199902 1.09043436 3.96055236 0.625 5.4375 C0.36976563 6.26121094 0.11453125 7.08492187 -0.1484375 7.93359375 C-1 10 -1 10 -3 11 C-3.36923077 4.6 -3.36923077 4.6 -1.5 1.5625 C-1.005 1.046875 -0.51 0.53125 0 0 Z " fill="#9629BA" transform="translate(245,222)"/>
<path d="M0 0 C-2.83862303 1.89241536 -4.93484939 3.10911299 -8.40234375 2.75390625 C-10.63136155 2.24330976 -12.81541847 1.67479296 -15 1 C-15 0.67 -15 0.34 -15 0 C-13.25093341 -0.19601608 -11.50068154 -0.38147403 -9.75 -0.5625 C-8.77546875 -0.66691406 -7.8009375 -0.77132812 -6.796875 -0.87890625 C-4.2368648 -0.98974468 -2.41851841 -0.77738092 0 0 Z " fill="#7BF626" transform="translate(270,243)"/>
<path d="M0 0 C4.8 3.32307692 4.8 3.32307692 5.8125 6.75 C5.874375 7.4925 5.93625 8.235 6 9 C5.34 9 4.68 9 4 9 C2.62517293 7.36739286 1.29352333 5.69774938 0 4 C-0.66 3.34 -1.32 2.68 -2 2 C-1.34 2 -0.68 2 0 2 C0 1.34 0 0.68 0 0 Z " fill="#854184" transform="translate(224,216)"/>
<path d="M0 0 C1.90401138 1.90401138 2.93520439 3.33425686 3.19921875 6.046875 C3.1886578 8.03233273 3.09915043 10.0169914 3 12 C2.34 11.67 1.68 11.34 1 11 C1 10.34 1 9.68 1 9 C0.34 8.34 -0.32 7.68 -1 7 C-0.625 3.375 -0.625 3.375 0 0 Z " fill="#7CE44D" transform="translate(306,125)"/>
<path d="M0 0 C0.93423645 3.01031744 1.04449911 3.86650268 0 7 C0.66 7.33 1.32 7.66 2 8 C0.02 8.33 -1.96 8.66 -4 9 C-4 7.68 -4 6.36 -4 5 C-3.34 4.67 -2.68 4.34 -2 4 C-0.86649466 1.98330173 -0.86649466 1.98330173 0 0 Z " fill="#838A69" transform="translate(237,242)"/>
<path d="M0 0 C1.06528748 2.73019786 1.07998186 3.79298812 0.00390625 6.578125 C-0.47175781 7.45984375 -0.94742188 8.3415625 -1.4375 9.25 C-1.91058594 10.14203125 -2.38367188 11.0340625 -2.87109375 11.953125 C-3.24363281 12.62859375 -3.61617187 13.3040625 -4 14 C-4.33 14 -4.66 14 -5 14 C-5.35048466 9.79418409 -4.61867025 8.22297877 -2 5 C-1.28837557 3.35202764 -0.60968047 1.68834592 0 0 Z " fill="#8D2EAA" transform="translate(252,209)"/>
<path d="M0 0 C1.17539996 0.92652701 2.34010577 1.86663387 3.5 2.8125 C4.1496875 3.33457031 4.799375 3.85664063 5.46875 4.39453125 C7 6 7 6 7 9 C6.21625 8.525625 5.4325 8.05125 4.625 7.5625 C3.11051322 6.66101977 1.5764103 5.78820515 0 5 C0 3.35 0 1.7 0 0 Z " fill="#B623C3" transform="translate(239,173)"/>
<path d="M0 0 C0.33 0 0.66 0 1 0 C1.19466332 1.79090253 1.38051213 3.58276505 1.5625 5.375 C1.66691406 6.37273437 1.77132812 7.37046875 1.87890625 8.3984375 C2 11 2 11 1 13 C0.34 13 -0.32 13 -1 13 C-1.33 11.68 -1.66 10.36 -2 9 C-1.34 9 -0.68 9 0 9 C0 6.03 0 3.06 0 0 Z " fill="#E510EB" transform="translate(234,150)"/>
<path d="M0 0 C0.66 0 1.32 0 2 0 C2 0.66 2 1.32 2 2 C2.66 2 3.32 2 4 2 C4.33 4.97 4.66 7.94 5 11 C1.23452331 7.23452331 1.08651531 5.09826415 0 0 Z " fill="#AE25C4" transform="translate(237,193)"/>
<path d="M0 0 C0.33 0.66 0.66 1.32 1 2 C1.99 1.67 2.98 1.34 4 1 C2.63016497 4.16115776 2.0109362 4.9927092 -1 7 C-1.99 6.34 -2.98 5.68 -4 5 C-2.68 3.35 -1.36 1.7 0 0 Z " fill="#BC3EB5" transform="translate(195,174)"/>
<path d="M0 0 C2.52631142 3.12781414 4.42373366 6.29577411 6 10 C5.67 10.99 5.34 11.98 5 13 C1.68441485 8.61487125 0.45003347 5.62541841 0 0 Z " fill="#D824CD" transform="translate(213,158)"/>
<path d="M0 0 C2.375 0.3125 2.375 0.3125 5 1 C5.66 1.99 6.32 2.98 7 4 C4.03 3.505 4.03 3.505 1 3 C0.67 4.32 0.34 5.64 0 7 C-1.33332095 4.3333581 -0.67102033 2.83319697 0 0 Z " fill="#EC0EE8" transform="translate(227,122)"/>
<path d="M0 0 C5.65611463 -0.56561146 9.22642128 1.28608722 14 4 C14 4.99 14 5.98 14 7 C12.989375 6.38125 11.97875 5.7625 10.9375 5.125 C7.36772915 3.07056045 3.990659 1.97730425 0 1 C0 0.67 0 0.34 0 0 Z " fill="#83F343" transform="translate(272,181)"/>
<path d="M0 0 C3.21946315 3.11214772 5.55891051 5.67673153 7 10 C6.01 10.495 6.01 10.495 5 11 C2.36620292 7.34666857 0.53115106 4.51478398 0 0 Z " fill="#AD7C9B" transform="translate(240,132)"/>
<path d="M0 0 C0.66 0.33 1.32 0.66 2 1 C2 3.64 2 6.28 2 9 C1.01 9.33 0.02 9.66 -1 10 C-0.67 6.7 -0.34 3.4 0 0 Z " fill="#9527BC" transform="translate(252,199)"/>
<path d="M0 0 C1.98 0.99 1.98 0.99 4 2 C4 2.99 4 3.98 4 5 C4.66 5 5.32 5 6 5 C6 5.99 6 6.98 6 8 C5.34 8 4.68 8 4 8 C4 7.34 4 6.68 4 6 C3.34 6 2.68 6 2 6 C1.34 4.02 0.68 2.04 0 0 Z " fill="#C912DC" transform="translate(235,187)"/>
<path d="M0 0 C2.91517292 1.07401108 4.77810176 1.77810176 7 4 C6.01 5.485 6.01 5.485 5 7 C0 1.125 0 1.125 0 0 Z " fill="#D225D1" transform="translate(219,171)"/>
<path d="M0 0 C0.5775 0.61875 1.155 1.2375 1.75 1.875 C3.83069418 4.05293915 3.83069418 4.05293915 6.1875 5.0625 C8 6 8 6 9 9 C4.5937814 7.65365543 2.56922298 5.80625626 0 2 C0 1.34 0 0.68 0 0 Z " fill="#D61ECD" transform="translate(224,152)"/>
<path d="M0 0 C0.33 0 0.66 0 1 0 C1.125 5.75 1.125 5.75 0 8 C-0.99 8 -1.98 8 -3 8 C-1.125 1.125 -1.125 1.125 0 0 Z " fill="#A34997" transform="translate(200,147)"/>
<path d="M0 0 C0.33 0 0.66 0 1 0 C1.19392201 5.52677733 0.7479503 9.75614911 -1 15 C-1.33 15 -1.66 15 -2 15 C-2.19392201 9.47322267 -1.7479503 5.24385089 0 0 Z " fill="#E714E4" transform="translate(225,129)"/>
<path d="M0 0 C0.66 0 1.32 0 2 0 C1.4409112 3.24271506 0.5867822 4.93057424 -2 7 C-2.66 7 -3.32 7 -4 7 C-4 6.01 -4 5.02 -4 4 C-3.01 4 -2.02 4 -1 4 C-0.67 2.68 -0.34 1.36 0 0 Z " fill="#B113D5" transform="translate(272,154)"/>
<path d="M0 0 C5.41538462 -0.36923077 5.41538462 -0.36923077 8.375 1.5 C8.91125 1.995 9.4475 2.49 10 3 C3.47692308 3.36923077 3.47692308 3.36923077 1.0625 1.5 C0.5365625 0.7575 0.5365625 0.7575 0 0 Z " fill="#6BF442" transform="translate(284,113)"/>
<path d="M0 0 C2.475 0.99 2.475 0.99 5 2 C5 2.99 5 3.98 5 5 C3.68 5.33 2.36 5.66 1 6 C0.67 4.02 0.34 2.04 0 0 Z " fill="#D22ACD" transform="translate(193,212)"/>
<path d="M0 0 C-1.32 0.33 -2.64 0.66 -4 1 C-4 2.32 -4 3.64 -4 5 C-5.32 4.67 -6.64 4.34 -8 4 C-7.67 3.01 -7.34 2.02 -7 1 C-4.53721199 -0.231394 -2.7204945 -0.07159196 0 0 Z " fill="#897077" transform="translate(258,172)"/>
<path d="M0 0 C0.8125 1.6875 0.8125 1.6875 1 4 C-1.1613627 6.51185394 -3.01962439 8.50981219 -6 10 C-4.52307692 5.32307692 -4.52307692 5.32307692 -1.875 3.6875 C-1.25625 3.460625 -0.6375 3.23375 0 3 C0 2.01 0 1.02 0 0 Z " fill="#8A30A7" transform="translate(275,154)"/>
<path d="M0 0 C1.5625 1.125 1.5625 1.125 3 3 C2.6875 6.1875 2.6875 6.1875 2 9 C1.34 8.67 0.68 8.34 0 8 C0 5.36 0 2.72 0 0 Z " fill="#B423CA" transform="translate(247,182)"/>
<path d="M0 0 C1.2065625 0.0309375 1.2065625 0.0309375 2.4375 0.0625 C2.4375 1.39583333 2.4375 2.72916667 2.4375 4.0625 C0.7875 4.0625 -0.8625 4.0625 -2.5625 4.0625 C-2.8925 3.0725 -3.2225 2.0825 -3.5625 1.0625 C-2.5625 0.0625 -2.5625 0.0625 0 0 Z " fill="#78EC3D" transform="translate(286.5625,171.9375)"/>
</svg>
